<?xml version="1.0" encoding="UTF-8" standalone="no"?>
<svg width="21px" height="21px" viewBox="0 0 21 21" version="1.1" xmlns="http://www.w3.org/2000/svg" xmlns:xlink="http://www.w3.org/1999/xlink" xmlns:sketch="http://www.bohemiancoding.com/sketch/ns">
    <!-- Generator: Sketch 3.3.3 (12081) - http://www.bohemiancoding.com/sketch -->
    <title>close</title>
    <desc>Created with Sketch.</desc>
    <defs></defs>
    <g id="Page-1" stroke="none" stroke-width="1" fill="none" fill-rule="evenodd" sketch:type="MSPage">
        <g id="File-Imported-(Img)" sketch:type="MSArtboardGroup" transform="translate(-209.000000, -176.000000)" fill="#FFFFFF" opacity="0.6">
            <path d="M228.779785,192.686523 L222.593262,186.5 L228.779785,180.313477 C229.634277,179.458984 229.634277,178.074707 228.779785,177.220215 C228.352539,176.792969 227.788574,176.570801 227.224609,176.570801 C226.677734,176.570801 226.11377,176.792969 225.686523,177.220215 L219.5,183.406738 L213.313477,177.220215 C212.88623,176.792969 212.322266,176.570801 211.758301,176.570801 C211.211426,176.570801 210.647461,176.792969 210.220215,177.220215 C209.365723,178.074707 209.365723,179.458984 210.220215,180.313477 L216.406738,186.5 L210.220215,192.686523 C209.365723,193.541016 209.365723,194.925293 210.220215,195.779785 C210.647461,196.207031 211.211426,196.429199 211.758301,196.429199 C212.322266,196.429199 212.88623,196.207031 213.313477,195.779785 L219.5,189.593262 L225.686523,195.779785 C226.11377,196.207031 226.677734,196.429199 227.224609,196.429199 C227.788574,196.429199 228.352539,196.207031 228.779785,195.779785 C229.634277,194.925293 229.634277,193.541016 228.779785,192.686523 L228.779785,192.686523 Z" id="close" sketch:type="MSShapeGroup"></path>
        </g>
    </g>
</svg>